<svg xmlns="http://www.w3.org/2000/svg" width="814" height="222.404" viewBox="0 0 814 222.404"><defs><style>.a,.b{fill:#010200;}.a{font-size:48px;font-family:AesteticoInformal-Bold, Aestetico Informal;font-weight:700;}.b{font-size:120px;font-family:AesteticoInformal-ExtraBold, Aestetico Informal;font-weight:800;}.c{fill:#e2665c;}</style></defs><g transform="translate(-554 -179.596)"><text class="a" transform="translate(1097 258)"><tspan x="-129.096" y="0">transforma</tspan></text><g transform="translate(888 243)"><text class="b" transform="translate(240 118)"><tspan x="-239.76" y="0">Medellín</tspan></text></g><g transform="translate(554 179.596)"><path class="c" d="M58.1,103.1a24.34,24.34,0,0,1-9.22,1.645c-6.582.225-10.553-2.556-11.886-8.107-3.22,4.777-8.776,8.885-17.436,8.885C6.582,105.549,0,97.108,0,83.889V49H15.55V80.774c0,6.774,3.115,10.553,9.22,10.553A12.181,12.181,0,0,0,36.436,82.77V49h15.55V87.438a2.757,2.757,0,0,0,3.11,3.11,8.041,8.041,0,0,0,2.446-.444Z" transform="translate(0 -22.124)"/><path class="c" d="M146.991,46.955,144.77,63.173a15.462,15.462,0,0,0-5.331-.773c-6.329,0-11.107,4-12.549,10.421V102.7H111.334V64.287c0-2.112-1.223-3-3.11-3a8.326,8.326,0,0,0-2.556.335l-.548-13a22.378,22.378,0,0,1,9.439-1.777c6.582,0,10.778,3,11.891,8.666,2.666-5.112,7.437-9.324,14.88-9.324A18.434,18.434,0,0,1,146.991,46.955Z" transform="translate(-47.463 -20.852)"/><path class="c" d="M240.02,54.483c0,19.663-11.332,29.662-24.55,29.662-7.443,0-12.994-2.556-16.455-7.679l-.548,6.1H184.7V1.62h15.555V33.278c3.664-4.777,9.22-7.317,16.1-7.317C230.246,25.962,240.02,35.5,240.02,54.483Zm-27.973-15c-6.1,0-9.993,3.225-11.77,8.447v14.88c1.645,5.112,5.885,7.777,11.441,7.777,7.443,0,12.44-4.777,12.549-15.55S219.359,39.5,212.025,39.5Z" transform="translate(-83.395 -0.731)"/><path class="c" d="M350.1,102.082c-2.441,1.1-4.887,1.558-8.885,1.558-6.22,0-10.333-2.666-11.666-8.556-3.439,5.556-9.324,9.11-17.217,9.11C298.664,104.194,289,94.53,289,75.536,289,56.652,300,46,313.133,46c7.443,0,12.884,2.556,16.328,7.224l.642-5.578h13.553V86.533c0,2.112,1.443,3.11,3.329,3.11a5.65,5.65,0,0,0,2.348-.313ZM328.1,82.535V66.98a11.018,11.018,0,0,0-10.772-7.328c-7.887,0-12.445,5.331-12.555,15.44-.11,10.663,5.222,15.44,12.22,15.44C322.458,90.531,326.324,87.422,328.1,82.535Z" transform="translate(-130.488 -20.77)"/><path class="c" d="M458.154,68.981v33.655H442.6V71.779c0-7-3.335-11.551-10.109-11.551a11.463,11.463,0,0,0-11.332,8.666v33.765h-15.55V64.314c0-2.331-1.1-3.22-3.11-3.22a9.045,9.045,0,0,0-2.666.335l-.669-13a24.632,24.632,0,0,1,9.324-1.645c6.445,0,10.553,2.666,12,7.443C423.6,49.675,429.156,46,437.931,46,450.711,46,458.154,54.227,458.154,68.981Z" transform="translate(-180.232 -20.77)"/><path class="c" d="M569.7,49v51.322c0,18.775-11.222,27-29.662,27-11.551,0-19.2-3.11-24.216-8.112l8.112-11.776c4.108,4,8.776,6,15.659,6,9.11,0,14.557-3.554,14.557-11.666V94.771c-3.335,4.333-8.666,7.887-16.663,7.887-13.109,0-19.554-8.441-19.554-21.66V49H533.47V77.439c0,6.774,3.115,10.333,9.22,10.333a12.143,12.143,0,0,0,11.447-7.778V49Z" transform="translate(-232.901 -22.124)"/><path class="c" d="M623,54.541c0-17.217,11.3-29.311,28.971-29.311,17.551,0,28.324,10.778,28.324,28.883,0,17.189-11.222,29.311-28.773,29.311C633.86,83.424,623,72.647,623,54.541Zm41.652-.11c0-9.774-4.887-15.774-12.994-15.774-8.227,0-12.884,5.885-12.884,15.55,0,9.873,4.772,15.774,12.994,15.774,8.09,0,12.862-5.776,12.862-15.55ZM642.745,18.648,650.3,0h19.1L654.966,20.442Z" transform="translate(-281.295)"/></g></g></svg>