<?xml version="1.0" encoding="utf-8"?>
<!-- Generator: Adobe Illustrator 24.0.1, SVG Export Plug-In . SVG Version: 6.00 Build 0)  -->
<svg version="1.1" id="Layer_1" xmlns="http://www.w3.org/2000/svg" xmlns:xlink="http://www.w3.org/1999/xlink" x="0px" y="0px"
	 viewBox="0 0 1082.6 603.6" style="enable-background:new 0 0 1082.6 603.6;" xml:space="preserve">
<style type="text/css">
	.st0{opacity:0.15;}
	.st1{fill:#E2665C;}
	.st2{fill:#DDA5A2;}
	.st3{fill:#E0925C;}
	.st4{fill:#00CBCB;}
	.st5{fill:#FFE503;}
	.st6{opacity:7.000000e-02;fill:#050505;}
	.st7{opacity:0.17;}
	.st8{fill:#003E83;}
	.st9{fill:#020202;}
	.st10{fill:#FFAA00;}
	.st11{fill:#FFFFFF;}
	.st12{fill:#00BCD6;}
	.st13{fill:#554C38;}
	.st14{fill:#B54D3C;}
	.st15{fill:#003D84;}
	.st16{fill:#00CEC2;}
	.st17{fill:#050505;}
	.st18{fill:#EBEFF2;}
	.st19{fill:#FFAC00;}
	.st20{fill:#05567B;}
	.st21{fill:#003E85;}
	.st22{fill:#A3A3A3;}
	.st23{fill:#BF40A7;}
	.st24{fill:#007A25;}
	.st25{fill:none;stroke:#000000;stroke-linecap:round;stroke-miterlimit:10;}
	.st26{fill:#FF6600;}
	.st27{fill:#F6D700;}
	.st28{fill:#003A85;}
	.st29{fill:#FF53BD;}
	.st30{fill:#232B32;}
	.st31{fill:none;stroke:#000000;stroke-width:3;stroke-linecap:round;stroke-miterlimit:10;}
</style>
<ellipse class="st0" cx="264.7" cy="557.5" rx="58.9" ry="4.7"/>
<ellipse class="st0" cx="69.3" cy="546.7" rx="49.6" ry="5.5"/>
<ellipse class="st0" cx="974.8" cy="542.7" rx="77.1" ry="8.7"/>
<ellipse class="st0" cx="389" cy="554.1" rx="34.9" ry="3.4"/>
<ellipse class="st0" cx="179.9" cy="567.8" rx="22.4" ry="2.8"/>
<ellipse class="st0" cx="784.7" cy="564.5" rx="38.8" ry="5.6"/>
<polygon class="st1" points="527.6,541.5 244.8,541.5 245.1,159.6 527.5,159.7 "/>
<polygon class="st2" points="823.5,159.7 675.6,79.7 527.5,159.7 527.5,159.7 527.5,159.7 527.5,159.7 527.5,159.7 527.5,541.6 
	823.5,541.6 823.5,159.7 "/>
<polygon class="st3" points="675.3,79.7 405.8,80.3 245.1,159.7 527.5,159.7 "/>
<rect id="Ventana_4_1_" x="284" y="209.2" transform="matrix(-1 -4.488733e-11 4.488733e-11 -1 637.1266 512.8313)" class="st4" width="69.2" height="94.5"/>
<rect id="Ventana_3_1_" x="409.1" y="209.2" transform="matrix(-1 -4.488733e-11 4.488733e-11 -1 887.4124 512.8313)" class="st4" width="69.2" height="94.5"/>
<path class="st5" d="M612.3,206.4L612.3,206.4c16.4,0,29.7,13.3,29.7,29.7v71h-59.4v-71C582.7,219.7,596,206.4,612.3,206.4z"/>
<path class="st6" d="M620.4,207.2c-10.1,6.7-12.1,21.2-13.2,42.4c-0.7,13.3-2.4,57.6-4,57.6c-1.4,0-20.5-0.1-20.5-0.1v-71
	C585.8,199.3,620.4,207.2,620.4,207.2z"/>
<path class="st5" d="M742.8,206.2L742.8,206.2c16.4,0,29.7,13.3,29.7,29.7v71h-59.4v-71C713.2,219.5,726.5,206.2,742.8,206.2z"/>
<path class="st6" d="M750.9,207c-10.1,6.7-12.1,21.2-13.2,42.4c-0.7,13.3-2.4,57.6-4,57.6c-1.4,0-20.5-0.1-20.5-0.1v-71
	C716.3,199.1,750.9,207,750.9,207z"/>
<path class="st5" d="M432,374.5L432,374.5c-28.4,0-51.4,23-51.4,51.4v115.6h102.9V425.9C483.5,397.5,460.4,374.5,432,374.5z"/>
<path class="st7" d="M438.4,374.9l-5.6-0.3c-28.8,0-52.5,23-52.5,51.4v115.6c0,0,26.4,0,28.4,0c1.7-40.5-3.1-92.6,8.7-134.5
	C423.7,384.7,443,377,438.4,374.9z"/>
<path class="st8" d="M282.2,467.3c0,0,9.6,78,10,83.6c0,0-7.3,2.6-8.5,1.7c-1.3-0.9-24.1-69.2-24.6-68.8c-0.4,0.4-12,59.8-13.9,66.2
	l-7.5,0.6l-4.5-83.4H282.2z"/>
<path class="st9" d="M292.3,550.7c0,0,5,2,8.7,4.6c0.4,0.2,0.1,0.8-0.3,0.8c-3.4,0.1-14,0.6-15.4,0.6c-1.7,0-1.5-4.3-1.5-4.3
	L292.3,550.7z"/>
<path class="st9" d="M245.3,549.9l0.4,1.9c0,0,4.7,3.4,3.9,4.5c-0.9,1.1-12,0-12,0l0.2-5.8L245.3,549.9z"/>
<path class="st9" d="M272.3,388.1c0,0,5.8-16.3-6.3-7.5c-2.9,2.1-8.4,0-12.1,1.6c-2,0.8-7.9,5.5-6,13.8s5.6,7.8,6.5,7.6
	c0.9-0.2-1.1-0.5-1.1-2.6c0,0-4.9-2.5-0.4-3.3c0,0-1.3-4,1.1-4.6c1.1-0.2,2.6,0.9,5.9,0.5c1.5-0.2,3-0.7,4.2-1.6
	C266.5,390.5,270.8,387.7,272.3,388.1z"/>
<path class="st10" d="M263.2,409.6l0.2-4.7c0,0,12.4,1.1,9-16.5c0,0,0.9-2.4-9.9,4.5c-6.2,1.9-8.4-1.1-9.9,0.6s-0.4,3.9-0.4,3.9
	s-1.7,0.2-1.8,1.3c-0.1,1.5,2.9,2.3,2.9,2.3s-0.4,1.7,1.9,3.2l0.2,5.4H263.2z"/>
<path class="st11" d="M268.9,398.2c0.1,0,0.2,0.1,0.2,0.3c-0.1,1.9-1.5,3.4-3.2,3.4s-3.1-1.5-3.2-3.4c0-0.1,0.1-0.3,0.2-0.3H268.9z"
	/>
<path class="st12" d="M315.1,397.3c0,0-11.1,32.1-24,22.5s-12-10.5-14.8-10.7c-2.8-0.2-37.7,0.6-37.7,0.6s-19.6,5.3-23.5,42.3
	c0,0.2-0.1,23.4,1,26.1c0.7,1.8,6.7-0.5,6.7-0.5s-4.1-30,9.4-41.4c1.9,0.6,1.1,31.5,1.1,31.5h49.1v-37.5c0,0,11.6,10.1,23.4,0
	s12.9-31.9,12.9-31.9L315.1,397.3z"/>
<path class="st13" d="M308.8,361.7c-0.9,0.2-2.1,3.7-1.1,5.4c1.7,2.8,13,10,13.4,12c0.3,1.4,0.2,3.9,0.2,5.2c0,0.5,0.4,0.8,0.9,1
	c0.9,0.4-2.2,8.3-3,10.4c-0.1,0.3-0.3,0.6-0.7,0.8l-0.8,0.5c-0.7,0.4-1.5-0.1-1.5-0.8c-0.1-3.4,0.7-11.8,1.9-11.7
	c0.4,0,1.2,0.4,1.4-0.3c0.3-1.4-0.1-4.3-0.8-4.8c-1-0.8-12.2-9.6-13.4-12.1c-1.1-2.3,0-5.6,0.2-6c0.2-0.3,0.7-1.9,2.4-2.1
	c0.9-0.1,1.5,0.7,1.5,1.6l0,0C309.5,361.2,309.2,361.5,308.8,361.7z"/>
<path class="st13" d="M338.6,360.8c0.2-0.8-0.3-1.6-1.1-1.7c-5.6-0.9-25.2-4-25.8-3.5c-0.6,0.5-0.3,1.8-0.3,1.8s-2.6-0.6-2.7,0.8
	c-0.1,1.2-0.2,3.4-0.3,4.7c0,0.6,0.4,1.1,0.9,1.2c0.4,0.1,0.8,0.1,1.1,0c0.7-0.3-0.2,1.6,0.4,1.9c2.3,1,21.6,3.1,25.4,3.2
	c0.4,0,0.7-0.6,0.8-0.9L338.6,360.8z"/>
<path class="st14" d="M308.6,360.5c0,0,2.4,4.9,5.9,0.4c1.8-1.6,3.3-0.5,4.3,0.7s5.8,1.3,8.1-0.4c2.4-1.7,3.8,5.7,10.1,5.8
	c0.3,0,1.6-6.8,1.6-6.8s-0.1-0.9-1.3-1.2c-1.1-0.2-25.4-4.2-25.8-3.5c-0.4,0.7-0.3,1.8-0.3,1.8s-2.5-0.7-2.7,0.8
	S308.6,360.5,308.6,360.5z"/>
<path class="st10" d="M316.2,390.6c0.2-0.2,0.4,0,0.4,0.2c-0.2,4.5,0,5.9,0.2,6c1.8,1.2,3.9-3.8,3-3.9c-0.9-0.1-1.1-3.7-0.4-4.8
	c0.8-1.2,2,0.5,2.8,1.4c0.9,1-1.6,8.3-3.1,8.8c-1.3,0.5-3.5-0.8-4-1C314.8,397.2,315.3,391.6,316.2,390.6z"/>
<path class="st10" d="M222.7,477.7c0,0,2,3.4,0.1,3.3c-1.2,0,1.1,6.4-2.1,4.8c-3.2-1.5-4.1-2.9-4.4-4.5c-0.3-1.6-0.2-3.1-0.2-3.1
	L222.7,477.7z"/>
<path class="st15" d="M421,431.9c0.1,0,0.2,0,0.4-0.1c0.1,0,0.2,0,0.3-0.1c0.2-0.1,0.4-0.1,0.6-0.2c0.2,0,0.4-0.1,0.6-0.1l1,5.3
	l-2,1.1l-1.2-6C420.8,431.9,420.9,431.9,421,431.9z"/>
<path class="st16" d="M389.2,451.4c0,0,6.7,1.7,9.9,3.1c3.2,1.4,12.7,1,12.7,1v8.4c0,0-10.4-1.1-11.1,1c-0.6,2.1,7.4,52.4,7.4,52.4
	l-48.1,0.6l5.1-40.5l-1,2.6l-4.5-2.7c0,0,6.9-19.9,17-26.2L389.2,451.4z"/>
<path class="st10" d="M389.7,451l-0.1-2.1c0,0,7.4-0.6,7.1-7.9c0,0,7.6-2.9-0.1-6l0.2-4.2l-7.7,0.3L382,451L389.7,451z"/>
<path class="st17" d="M397.1,426.2c-4.2-2.7-14.5-4.5-21.6,1.4c-4,4.3-2.7,9.3-2.7,9.3s-13.3,2.4-3.9,13.3c3.2,2.9,6.9,3,10.2,1.9
	c6.7-2.1,11.1-8.5,10.9-15.4c0-1.7-0.3-3.6-0.9-5.6c1.5,0.3,6.1,0,7.7-0.3C398.4,430.6,398.4,427,397.1,426.2z"/>
<path class="st10" d="M363.6,478.9c0,0-5.6,16.7-5.6,18.2c0,1.4-1.6,7.4-3.1,6.1c-1.4-1.3-0.8-4.5,0.5-8.4s5.6-17.4,5.6-17.4
	L363.6,478.9z"/>
<polygon class="st15" points="425.6,449.8 425.3,450.3 424.8,450 422.3,440.4 424.6,440.2 "/>
<path class="st10" d="M422.3,431.7c-0.2,0-0.4,0.1-0.6,0.2c-0.2,0.1-0.5,0.1-0.7,0.1c-0.1,0-0.2,0-0.2,0l-0.6-3.2l2.2-0.4l0.6,3.2
	C422.7,431.6,422.5,431.7,422.3,431.7z"/>
<path class="st18" d="M424.1,425.7c-0.3,0-0.6,0-1,0c-0.1,0-0.3,0-0.4-0.1c-0.1,0-0.3-0.1-0.4-0.2c-0.5-0.3-1-0.7-1.4-1.1
	c-0.2-0.2-0.4-0.4-0.6-0.6c-0.2-0.2-0.4-0.3-0.6-0.4c-0.2-0.1-0.5,0-0.7,0c-0.1,0.1-0.3,0.1-0.4,0.2c-0.1,0.1-0.2,0.1-0.3,0.2
	c-0.2,0.1-0.4,0.3-0.6,0.4c-0.1,0-0.2,0.1-0.2,0.1c0.3-2.6,2.3-3,1.1-6.2c-0.5-1.5,3.5,0.9,4.4,2.9
	C423.3,422,424.2,423.8,424.1,425.7C424.1,425.7,424.1,425.7,424.1,425.7z"/>
<path d="M417.8,424.3c0.2-0.1,0.4-0.3,0.6-0.4c0.1-0.1,0.2-0.1,0.4-0.2c0.1-0.1,0.3-0.1,0.4-0.2c0.2,0,0.5,0,0.7,0.1
	c0.2,0.1,0.4,0.3,0.6,0.4c0.2,0.2,0.4,0.4,0.6,0.6c0.2,0.2,0.4,0.4,0.7,0.6c0.2,0.2,0.5,0.3,0.7,0.5c0.1,0.1,0.3,0.1,0.4,0.1
	c0.2,0,0.3,0,0.5,0c0.3,0,0.5,0,0.8,0c-0.2,2.7-3.5,4.2-5.5,2.4c-0.6-0.5-1.1-1.3-1.2-2.5c0-0.4,0-0.8,0-1.2
	C417.6,424.4,417.7,424.4,417.8,424.3z"/>
<path class="st10" d="M424.6,437c0,1,0.5,3.4,0,3.6c-0.5,0.2-2.3-0.3-2.3,0.6c0,1.1-1.5,19.4-10.3,20.5l-0.2-6.3
	c0,0,8.6-5.7,8.6-14.3c0-1.1,0.3-2.1,1-3C422,437.4,424.7,435.4,424.6,437z"/>
<polygon class="st15" points="391.1,535.2 390,517.4 399.5,517.4 398,535.2 "/>
<path class="st19" d="M398,535.3l-1.5,16.8c0,0,0.2,4.1-4,3.7l-1.3-20.5H398z"/>
<path class="st20" d="M397.4,552.2c0,0,2.9-1,3.9-0.8c0.9,0.2,1.9,1.5-4,4.4c-5.9,2.9-4.8,0-4.8,0S395.4,552.9,397.4,552.2z"/>
<polygon class="st15" points="370.7,535.3 369.5,517.5 379.1,517.5 377.5,535.3 "/>
<path class="st19" d="M377.5,535.4L376,551c0,0,0.2,3.8-4,3.4l-1.3-19.1H377.5z"/>
<path class="st20" d="M377.2,550.5c0,0,3-0.7,4-0.3c0.9,0.3,1.7,1.8-4.6,3.9c-6.3,2.1-4.8-0.6-4.8-0.6S375.1,550.9,377.2,550.5z"/>
<path class="st21" d="M197.1,519.7c0.4,0.6-0.6,3-1.5,3.7c-0.9,1.1-0.4,2.3-0.2,2.8c0.5,1.9,5,3.2,9.4,2.5l2.6-0.4
	c0.8-0.1,1.4,0.6,1.3,1.3l-0.4,1.7c-0.8,4-4.9,8.6-9.5,10.6l-2.6,1.1c-0.4,0.2-0.7,0.6-0.7,1.1l0.5,8.4c0.3,5.1,0.9,10.4,1.3,11.9
	c1.1,4.6-1.5,3.3-3.6-1.7c-1.1-2.5-2.2-4.5-2.5-4.5s-0.5,2.1-0.3,4.6c0.4,6.2-1.7,6.9-3.3,1.2c-0.3-0.9-0.5-1.8-0.7-2.5
	c-0.3-0.9-1.3-1.5-1.8-0.7c-2.9,4.3-7,4-5.8,4.5c5.1,1.9,3.9,3.3-3.6,2.9c-10.5-0.5-11.3-5.1-11.3-9.6c-10.9-17.7,10-16.2,8.8-15.3
	c0,0-10.2,4.3-6.4,10.7c2.2,3.7,16.5-11.6,17.9-17.2c0.9-3.2-0.3-5.6-2.5-3.5c-2.1,2.4-3,1.8-3.1,1.7c-1.3-1.5,1-4,4.1-4.5
	c1.7-0.2,2.4-0.3,4-0.3c0.1,0,0.1,0,0.2,0c1.8-0.6,3.4-2,4.2-3c0-0.1,0.1-0.1,0.1-0.2c0.1-0.8-0.1-1-0.1-1.9
	C191.4,521.5,195.5,517.1,197.1,519.7z"/>
<path d="M208.5,529.9c0,0,0.8-1.4-0.7-1.3c-1.2,0-1.1,0.3-1.1,0.3s0.1,0.6,0.5,0.9C207.4,529.9,208.1,530.1,208.5,529.9z"/>
<polygon class="st22" points="199.3,535.6 198.9,535.5 199.1,535.2 205.5,533.1 205.7,534.2 "/>
<path class="st22" d="M212.8,531.4c0,0.1,0,0.1,0.1,0.2c0,0.1,0,0.1,0.1,0.2c0,0.1,0.1,0.2,0.1,0.3c0,0.1,0.3,0.2,0.4,0.3l-5.9,1.2
	l0.5-1.4l4.7-0.9C212.8,531.3,212.8,531.3,212.8,531.4z"/>
<path class="st14" d="M214.3,532.7c0-0.2,0-0.3-0.1-0.5c0-0.1,0-0.1,0-0.2c0-0.1,0-0.1,0.1-0.2c0.1-0.3,0.3-0.5,0.5-0.8
	c0.1-0.1,0.2-0.2,0.3-0.3c0.1-0.1,0.1-0.2,0.2-0.3c0-0.1,0-0.3-0.1-0.4c0-0.1-0.1-0.1-0.1-0.2c0-0.1-0.1-0.1-0.1-0.2
	c-0.1-0.1-0.2-0.2-0.2-0.3c0,0,0-0.1-0.1-0.1c1.3,0,1.6,1,3.2,0.3c0.7-0.3-0.3,1.8-1.3,2.4C216.2,532.1,215.3,532.7,214.3,532.7
	C214.3,532.7,214.3,532.7,214.3,532.7z"/>
<path class="st13" d="M214.8,529.4c0.1,0.1,0.2,0.2,0.2,0.3c0,0.1,0.1,0.1,0.1,0.2c0,0.1,0.1,0.1,0.1,0.2c0,0.1,0,0.2,0,0.3
	c0,0.1-0.1,0.2-0.2,0.3c-0.1,0.1-0.2,0.2-0.3,0.3c-0.1,0.1-0.2,0.2-0.3,0.4c-0.1,0.1-0.2,0.3-0.2,0.4c0,0.1,0,0.1,0,0.2
	c0,0.1,0,0.2,0,0.2c0,0.1,0,0.3,0,0.4c-1.4,0-2.3-1.6-1.5-2.7c0.2-0.3,0.6-0.6,1.2-0.7c0.2,0,0.4-0.1,0.6-0.1
	C214.7,529.3,214.7,529.4,214.8,529.4z"/>
<path class="st23" d="M195.4,544.3c0,0-8.1-0.6-11.1-6.8c0,0-1.6,0.9-0.7,2.2c0.9,1.3,1.9,4.1,11.7,6.4
	C195.2,546.1,195.9,546,195.4,544.3z"/>
<path class="st24" d="M34.7,372.8c4.6-7.3,6.4-16.1,4.8-24.6c-1.1-5.7-2.8-11.5-3.2-17.9c-0.5-14.7,13.4-21.3,13.1-26.5
	c-0.3-5.1-13.3-10.9-13.3-28c0.1-33.4,27.4-38.7,35.3-38c21.7,2,32.9,21.4,32.5,38c-0.3,17-13,22.8-13.3,28
	c-0.3,5.1,13.6,11.8,13.1,26.5c-0.4,6.5-2.2,12.5-3.2,18.3c-1.5,7.9-0.2,16.1,3.9,23.1c14,24.2,8.7,40.9-1.5,52
	c-18.3,19.8-50.1,19.5-67.9-0.7C25.2,412,20.5,395.6,34.7,372.8z"/>
<rect x="66" y="334.6" transform="matrix(-1 -4.473367e-11 4.473367e-11 -1 138.8052 880.7599)" width="6.8" height="211.5"/>
<line class="st25" x1="620.8" y1="568.1" x2="620.8" y2="292.1"/>
<line class="st25" x1="698.3" y1="569" x2="620.3" y2="291.7"/>
<line class="st25" x1="684.5" y1="349.3" x2="743.3" y2="566.8"/>
<line class="st25" x1="729.8" y1="518" x2="684.1" y2="518.2"/>
<line class="st25" x1="721.7" y1="489.6" x2="676.3" y2="489.6"/>
<line class="st25" x1="714.5" y1="461.3" x2="668.3" y2="461.4"/>
<line class="st25" x1="705.5" y1="432.5" x2="660" y2="432.6"/>
<line class="st25" x1="698" y1="404.5" x2="652.1" y2="404.3"/>
<line class="st25" x1="690.6" y1="376.1" x2="643.8" y2="376.1"/>
<line class="st25" x1="636.2" y1="347.9" x2="676.4" y2="348"/>
<line class="st25" x1="652.4" y1="319.6" x2="628" y2="319.5"/>
<path class="st10" d="M692.7,289.7c0,0,6.1,10.9,7.3,19.4c1.2,8.6,2.7,10.8,1.4,12.2c0,0-1.8,1.3-3.1-0.8c-1.4-2.1,0.6-4.8-0.1-7.4
	c-0.7-2.6-8.1-15.9-8.1-15.9S685.6,289.6,692.7,289.7z"/>
<polygon class="st15" points="631.4,272.7 631.1,273.1 630.7,272.7 630.9,262.6 632.6,262.9 "/>
<path class="st15" d="M632.4,251c0.1,0,0.2,0,0.3,0c0.1,0,0.2,0,0.3,0c0.2,0,0.4-0.1,0.6-0.1c0.2,0,0.4,0,0.5,0l-0.9,9.3l-2-1.1
	l0.8-8.1C632.2,251,632.3,251,632.4,251z"/>
<path class="st10" d="M648.5,278.4c0,0-11.9,2.4-13.6-16.3c-1.5-3.2-4.4-3-4.4-3s-2.4,3.4-0.9,3.6c1.5,0.2,3.5-0.6,3.5,1.5
	s-2.6,16.3,14.7,21.4L648.5,278.4z"/>
<path class="st11" d="M633.6,251c-0.2,0-0.4,0-0.6,0c-0.2,0-0.4,0-0.6,0c-0.1,0-0.1,0-0.2,0l0.2-3.2l2.1,0.1l-0.3,3.2
	C634,251,633.8,251,633.6,251z"/>
<path class="st14" d="M630.5,244c0.3,0.1,0.6,0.2,0.9,0.2c0.1,0,0.3,0,0.4,0c0.1,0,0.3,0,0.4-0.1c0.6-0.2,1.1-0.5,1.6-0.8
	c0.2-0.1,0.5-0.3,0.7-0.4c0.2-0.1,0.4-0.2,0.7-0.2c0.3,0,0.5,0.1,0.7,0.2c0.1,0.1,0.2,0.2,0.4,0.3c0.1,0.1,0.2,0.2,0.3,0.3
	c0.2,0.2,0.3,0.4,0.5,0.6c0.1,0.1,0.1,0.1,0.2,0.2c0.3-2.6-1.5-3.4,0.5-6.2c0.9-1.3-3.6,0-5,1.8C632.1,240.6,630.8,242.2,630.5,244
	C630.4,244,630.4,244,630.5,244z"/>
<path d="M636.9,244.2c-0.2-0.2-0.3-0.4-0.5-0.6c-0.1-0.1-0.2-0.2-0.3-0.3c-0.1-0.1-0.2-0.2-0.4-0.3c-0.2-0.1-0.4-0.1-0.7-0.1
	c-0.2,0.1-0.5,0.2-0.7,0.3c-0.2,0.1-0.5,0.3-0.7,0.4c-0.3,0.1-0.5,0.3-0.8,0.4c-0.3,0.1-0.5,0.2-0.8,0.3c-0.1,0-0.3,0-0.4,0
	c-0.2,0-0.3,0-0.5-0.1c-0.2-0.1-0.5-0.1-0.7-0.2c-0.5,2.7,2.4,4.9,4.8,3.7c0.7-0.4,1.4-1,1.7-2.1c0.1-0.4,0.2-0.8,0.3-1.2
	C637.1,244.4,637,244.3,636.9,244.2z"/>
<path class="st17" d="M666.8,258.3c0,0,2.1,0,2.2,1.3c0.1,1.1-0.1,2.8-2,2.8c-1.9,0.1,1.3,9,7.4,8.4c4.2-0.4,8.9-1.8,10.1-10.9
	s-5.1-13.8-9.2-13.7c-6.4,0-16.8,2-16.5,0.2c0.2-1.3-0.8-0.4-0.8-0.4s-2.9,3.3,0.8,8.1h8L666.8,258.3z"/>
<path class="st10" d="M672.8,270.8l-0.1,4.2l-8.2,0.1l0.1-3.9c0,0-5.5-0.8-5.8-7c-0.2-0.7-2.6-0.2-2.4-3.4c0.1-1.6,2.4-2.1,2.4-2.1
	l0-4.5l8,0l0,4.2c0,0,2.5-0.2,2.3,2c-0.2,2.3-2.5,2.2-2.5,2.2s-1.2,1.8,1.8,5.3S672.8,270.8,672.8,270.8z"/>
<path class="st11" d="M689.1,315.5h-35.6c-0.3,0-0.5-0.2-0.5-0.5c0.1-3.3,0.6-20.7,1.8-25.6c0.2-0.7-0.4-1.4-1.1-1.4
	c-1.7,0-4.2,0.3-5.4,0.5c-0.3,0.1-0.6-0.2-0.6-0.5l0.4-10.2c0-0.3,0.3-0.5,0.6-0.5c1.4,0.2,5,0.5,6.3-0.3c1.6-1,2.5-1.6,9.7-1.8
	c7.2-0.2,15,0,15.8,0c4.3-0.1,14.4,13.8,13.5,14.7c-0.9,0.9-4.6,2.1-4.8,3.4c-0.2,1.5,0.5,18.5,0.6,21.8
	C689.6,315.2,689.4,315.5,689.1,315.5z"/>
<path class="st10" d="M657.7,369.6c-0.9-11.4-2.2-31-1.4-30.9c1.2,0.1,8.4,0.1,8.4,0.1s-1.1,19.1-1.9,30.9H657.7z"/>
<path class="st26" d="M678.1,373.5c0,0-5.2-0.8-5.4-0.1c-0.2,0.8-0.3,1.8,0.7,2.7c1,0.9,4.5,1,4.9,1.1
	C678.8,377.4,678.1,373.5,678.1,373.5z"/>
<path class="st26" d="M658,373.7c0,0-5.2-0.8-5.4-0.1c-0.2,0.8-0.3,1.8,0.7,2.7s4.5,1,4.9,1.1C658.7,377.6,658,373.7,658,373.7z"/>
<path class="st27" d="M683,369.3c-0.3,3.6-0.5,6.6-0.6,7.9l-3.9,0c0,0-0.3-3.3-0.6-7.9H683z"/>
<path class="st27" d="M662.9,369.5c-0.3,3.6-0.5,6.6-0.6,7.9l-3.9,0c0,0-0.3-3.3-0.6-7.9H662.9z"/>
<path class="st10" d="M677.8,369.4c-0.9-11.4-2.2-30.9-1.4-30.9c1.2,0.1,8.4,0.1,8.4,0.1s-1.1,19.1-1.9,30.8H677.8z"/>
<path class="st28" d="M689.5,315.2l1.6,23.9l-17.7-0.3c0,0-0.8-7.9-1.4-8s-1.3,0-1.3,0l-0.9,8.2l-18.3-0.2l1.6-23.6H689.5z"/>
<polygon class="st10" points="807,510.9 804.7,555.9 798.9,556.1 796.8,511.1 "/>
<path class="st8" d="M818.2,511.1h-55c0,0-1-21.5,2.9-25.7c3.9-4.2,48.5,0,48.5,0S819.2,508.8,818.2,511.1z"/>
<path class="st29" d="M809.2,428.5l5.6,56.8l-48.6,0.2c0,0,0-39.4,8.2-54.5c4.2-1.6,14.8-4.2,13.8-17.1c-0.3-5.1,6.8-1.7,6.8-1.7
	S790.6,426.1,809.2,428.5z"/>
<path class="st10" d="M787,388.2c0,0-2.1,0.7-3.7,4.8c-0.6,0.4-1.1,0-1.3,0.9c-0.2,0.9,0.3,1.3,0.8,1.4c0.5,0.2-1.3,7.6,4,12.2
	c1.5,1.1,2.8,1.3,3.5,1.2s0.4,2.4,0.4,2.4l3.8,1.6c0,0,2.6-5.4,4.7-12c2.1-6.6-4.3-9.5-5-9.3S787,388.2,787,388.2z"/>
<path class="st17" d="M792.6,382.5c-0.6-0.7-1.8-1.4-4-1.4c-1.7,0-3.3,0.9-3.9,2.5c-0.6,1.4-0.4,3.4,2.5,5.6
	c5.8,4.5,9.2,0.3,11.3,6.6s-2.6,10.3-3.5,13.5c-1,3.2-4.3,18.8,14.2,19.4c0.2,0,0.4,0,0.6,0c10.4-0.9,9-5.9,9-5.9s-0.2-5.6-5.9-6.1
	c-1.1-0.5,3.5-5.1-3.9-10.3c-2.5-1.8-1-4.6,0-6c0.6-0.7,0.9-1.6,0.9-2.6c0-3.6-1.6-11.9-14.7-14
	C794.1,383.7,793.3,383.2,792.6,382.5z"/>
<path class="st11" d="M757.2,383.2c0.9,0,1.6,0.7,1.6,1.6v2.1v14.7c0,0.9-0.7,1.6-1.6,1.6l-14.9,0.1c-0.9,0-1.6-0.7-1.6-1.6v-16.9
	c0-0.9,0.7-1.6,1.6-1.6H757.2z"/>
<path class="st10" d="M788.5,412.2c0,0-25.8,17.3-31-8.9l-2.3,0c0,0-0.6,6.5,9.5,17.8c0,0-17.3,3.7-17.8-17.7c0,0,0.6-3.4-1.4-2.7
	c-2.1,0.6-2.4,1-2.9-0.3c-0.5-1.3-2.1-1.3-2.1-1.3s-1,3.7,1.7,4.4c1,0.3-0.2,15,11.8,24.1c9.6,4.9,22.2,3.3,22.2,3.3
	S790.3,428.9,788.5,412.2z"/>
<path class="st29" d="M758.8,386.9c0,0-4.3,1.3-4.8-0.2c-0.5-1.5,1.1,10.1-3.3,8.9c-1-0.4-1.2-3.5-1.2-3.5s0,1.6-1.5,0.9
	c-1.5-0.8,0-2.8,0-2.8s-2.7,1.2-2.8-0.8c-0.1-1.9,0.7,8.3-0.3,9s-2.2,1.1-2.1-7.2c0.2-0.5-1.6,2.8-1.9,0c-0.3-2.9-0.2-8.1-0.2-8.1
	h18.1V386.9z"/>
<path class="st30" d="M805.4,560.2l-13.3,0.2c0,0,2.7-2.1,6.8-4.3l5.8-0.2L805.4,560.2z"/>
<polygon class="st10" points="780.6,511.3 778.4,559.1 772.6,559.3 770.5,511.5 "/>
<path class="st30" d="M779.2,563.2l-13.3,0.2c0,0,2.7-2.1,6.8-4.3l5.8-0.2L779.2,563.2z"/>
<path class="st24" d="M1037.2,383.3c0,0-9-4.3-13.3-29.6c-4.1-11.6-18-17.4-32.4-13.1c-14.4,4.3-31.9-4.1-31.9-4.1
	s-41.1-12.6-56.6,33.9c-4.1,25.1,4.5,33.9-12.2,55.5c-9,22.9,9,52.7,21.9,57.6c12.9,4.9,22.1,7.7,37.9,4.9c15.9-2.8,15-3.6,19.3-2.6
	c4.3,1.1,15.6,1.5,24.6,4.7s37.3,3,51.2-9.9s20.6-28.7,20.6-28.7S1078.7,407.1,1037.2,383.3z"/>
<line class="st31" x1="971.4" y1="398.4" x2="971.4" y2="543.2"/>
<line class="st31" x1="954" y1="411" x2="970.5" y2="427.3"/>
<line class="st31" x1="990" y1="433.7" x2="973.1" y2="451.7"/>
</svg>
