<svg xmlns="http://www.w3.org/2000/svg" viewBox="0 0 727.46 190.18"><defs><style>.cls-1{fill:#e2665c;}</style></defs><title>urbanyo_naranja_v2</title><g id="Layer_2" data-name="Layer 2"><g id="Layer_1-2" data-name="Layer 1"><path class="cls-1" d="M105.92,146c-4.45,1.83-9.31,2.84-16.81,3-12,.41-19.24-4.66-21.67-14.78-5.87,8.71-16,16.2-31.79,16.2C12,150.48,0,135.09,0,111V47.39H28.35v57.93c0,12.35,5.68,19.24,16.81,19.24,11.35,0,18.64-7.7,21.27-15.6V47.39H94.78v70.08c0,3.85,2,5.67,5.67,5.67a14.66,14.66,0,0,0,4.46-.81Z"/><path class="cls-1" d="M181.46,46l-4.05,29.57a28.19,28.19,0,0,0-9.72-1.41c-11.54,0-20.25,7.29-22.88,19v54.48H116.45V77.57c0-3.85-2.23-5.47-5.67-5.47a15.18,15.18,0,0,0-4.66.61l-1-23.7a40.8,40.8,0,0,1,17.21-3.24c12,0,19.65,5.47,21.68,15.8,4.86-9.32,13.56-17,27.13-17A33.61,33.61,0,0,1,181.46,46Z"/><path class="cls-1" d="M285.56,96.4c0,35.85-20.66,54.08-44.76,54.08-13.57,0-23.69-4.66-30-14l-1,11.13H184.7V0h28.36V57.72c6.68-8.71,16.81-13.37,29.36-13.37C267.74,44.35,285.56,61.77,285.56,96.4Zm-51-27.34c-11.13,0-18.22,5.88-21.46,15.39v27.14c3,9.32,10.73,14.18,20.86,14.18,13.57,0,22.68-8.71,22.88-28.35S247.89,69.06,234.52,69.06Z"/><path class="cls-1" d="M400.39,146.63c-4.45,2-8.91,2.84-16.2,2.84-11.34,0-18.84-4.86-21.27-15.6-6.27,10.13-17,16.61-31.39,16.61-24.91,0-42.53-17.62-42.53-52.25C289,63.8,309.05,44.35,333,44.35c13.57,0,23.49,4.66,29.77,13.17l1.22-10.13h24.71v70.89c0,3.85,2.63,5.67,6.07,5.67a10.3,10.3,0,0,0,4.25-.61ZM360.29,111V82.63c-3-8.1-10.13-13.36-19.64-13.36-14.38,0-22.69,9.72-22.89,28.15-.2,19.44,9.52,28.15,22.28,28.15C350,125.57,357.05,119.9,360.29,111Z"/><path class="cls-1" d="M506.71,86.28v61.36H478.36V91.34c0-12.76-6.08-21.06-18.43-21.06a20.9,20.9,0,0,0-20.66,15.8v61.56H410.92V77.77c0-4.25-2-5.87-5.67-5.87a16.49,16.49,0,0,0-4.86.61l-1.22-23.7a44.91,44.91,0,0,1,17-3c11.75,0,19.24,4.86,21.88,13.57,5.67-8.3,15.79-15,31.79-15C493.14,44.35,506.71,59.34,506.71,86.28Z"/><path class="cls-1" d="M614.05,47.39V141c0,34.23-20.46,49.22-54.08,49.22-21.06,0-35-5.68-44.15-14.79l14.79-21.47c7.49,7.29,16,10.94,28.55,10.94,16.61,0,26.54-6.48,26.54-21.27V130.83c-6.08,7.9-15.8,14.38-30.38,14.38-23.9,0-35.65-15.39-35.65-39.49V47.39H548V99.24c0,12.35,5.68,18.83,16.81,18.83A22.14,22.14,0,0,0,585.7,103.9V47.39Z"/><path class="cls-1" d="M623,97.82c0-31.39,20.65-53.47,52.86-53.47,32,0,51.64,19.65,51.64,52.66,0,31.39-20.45,53.47-52.45,53.47C642.8,150.48,623,130.83,623,97.82Zm75.94-.2c0-17.82-8.91-28.76-23.69-28.76-15,0-23.49,10.73-23.49,28.35,0,18,8.7,28.76,23.69,28.76C690.2,126,698.9,115.44,698.9,97.62Z"/></g></g></svg>